{"glyphs":{"0":{"ha":1042,"x_min":0,"x_max":868,"o":"m 347 347 l 347 868 l 521 868 l 521 347 l 347 347 m 694 174 l 694 1042 l 174 1042 l 174 174 l 694 174 m 0 0 l 0 1215 l 868 1215 l 868 0 l 0 0 z "},"1":{"ha":1042,"x_min":0,"x_max":868,"o":"m 694 174 l 694 347 l 521 347 l 521 1042 l 174 1042 l 174 868 l 347 868 l 347 347 l 174 347 l 174 174 l 694 174 m 0 0 l 0 521 l 174 521 l 174 694 l 0 694 l 0 1215 l 694 1215 l 694 521 l 868 521 l 868 0 l 0 0 z "},"2":{"ha":1042,"x_min":0,"x_max":868,"o":"m 694 174 l 694 347 l 347 347 l 347 521 l 694 521 l 694 1042 l 174 1042 l 174 868 l 521 868 l 521 694 l 174 694 l 174 174 l 694 174 m 0 0 l 0 1215 l 868 1215 l 868 0 l 0 0 z "},"3":{"ha":1042,"x_min":0,"x_max":868,"o":"m 694 174 l 694 1042 l 174 1042 l 174 868 l 521 868 l 521 694 l 174 694 l 174 521 l 521 521 l 521 347 l 174 347 l 174 174 l 694 174 m 0 0 l 0 1215 l 868 1215 l 868 0 l 0 0 z "},"4":{"ha":1042,"x_min":0,"x_max":868,"o":"m 694 174 l 694 1042 l 521 1042 l 521 694 l 347 694 l 347 1042 l 174 1042 l 174 521 l 521 521 l 521 174 l 694 174 m 347 0 l 347 347 l 0 347 l 0 1215 l 868 1215 l 868 0 l 347 0 z "},"5":{"ha":1042,"x_min":0,"x_max":868,"o":"m 694 174 l 694 694 l 347 694 l 347 868 l 694 868 l 694 1042 l 174 1042 l 174 521 l 521 521 l 521 347 l 174 347 l 174 174 l 694 174 m 0 0 l 0 1215 l 868 1215 l 868 0 l 0 0 z "},"6":{"ha":1042,"x_min":0,"x_max":868,"o":"m 347 347 l 347 521 l 521 521 l 521 347 l 347 347 m 694 174 l 694 694 l 347 694 l 347 1042 l 174 1042 l 174 174 l 694 174 m 0 0 l 0 1215 l 521 1215 l 521 868 l 868 868 l 868 0 l 0 0 z "},"7":{"ha":1042,"x_min":0,"x_max":868,"o":"m 694 174 l 694 1042 l 174 1042 l 174 868 l 521 868 l 521 174 l 694 174 m 347 0 l 347 694 l 0 694 l 0 1215 l 868 1215 l 868 0 l 347 0 z "},"8":{"ha":1042,"x_min":0,"x_max":868,"o":"m 347 347 l 347 521 l 521 521 l 521 347 l 347 347 m 347 694 l 347 868 l 521 868 l 521 694 l 347 694 m 694 174 l 694 1042 l 174 1042 l 174 174 l 694 174 m 0 0 l 0 1215 l 868 1215 l 868 0 l 0 0 z "},"9":{"ha":1042,"x_min":0,"x_max":868,"o":"m 347 694 l 347 868 l 521 868 l 521 694 l 347 694 m 694 174 l 694 1042 l 174 1042 l 174 521 l 521 521 l 521 174 l 694 174 m 347 0 l 347 347 l 0 347 l 0 1215 l 868 1215 l 868 0 l 347 0 z "}," ":{"ha":347,"x_min":0,"x_max":0,"o":""},"!":{"ha":694,"x_min":0,"x_max":521,"o":"m 347 174 l 347 347 l 174 347 l 174 174 l 347 174 m 347 521 l 347 1042 l 174 1042 l 174 521 l 347 521 m 0 0 l 0 1215 l 521 1215 l 521 0 l 0 0 z "},"\"":{"ha":1042,"x_min":0,"x_max":868,"o":"m 347 694 l 347 1042 l 174 1042 l 174 694 l 347 694 m 694 694 l 694 1042 l 521 1042 l 521 694 l 694 694 m 0 521 l 0 1215 l 868 1215 l 868 521 l 0 521 z "},"#":{"ha":1389,"x_min":0,"x_max":1215,"o":"m 521 521 l 521 694 l 694 694 l 694 521 l 521 521 m 868 174 l 868 347 l 1042 347 l 1042 521 l 868 521 l 868 694 l 1042 694 l 1042 868 l 868 868 l 868 1042 l 694 1042 l 694 868 l 521 868 l 521 1042 l 347 1042 l 347 868 l 174 868 l 174 694 l 347 694 l 347 521 l 174 521 l 174 347 l 347 347 l 347 174 l 521 174 l 521 347 l 694 347 l 694 174 l 868 174 m 174 0 l 174 174 l 0 174 l 0 1042 l 174 1042 l 174 1215 l 1042 1215 l 1042 1042 l 1215 1042 l 1215 174 l 1042 174 l 1042 0 l 174 0 z "},"$":{"ha":1042,"x_min":0,"x_max":868,"o":"m 521 0 l 521 174 l 694 174 l 694 694 l 347 694 l 347 868 l 694 868 l 694 1042 l 521 1042 l 521 1215 l 347 1215 l 347 1042 l 174 1042 l 174 521 l 521 521 l 521 347 l 174 347 l 174 174 l 347 174 l 347 0 l 521 0 m 174 -174 l 174 0 l 0 0 l 0 1215 l 174 1215 l 174 1389 l 694 1389 l 694 1215 l 868 1215 l 868 0 l 694 0 l 694 -174 l 174 -174 z "},"%":{"ha":1389,"x_min":0,"x_max":1215,"o":"m 1042 174 l 1042 347 l 868 347 l 868 174 l 1042 174 m 347 868 l 347 1042 l 174 1042 l 174 868 l 347 868 m 347 174 l 347 347 l 521 347 l 521 521 l 694 521 l 694 694 l 868 694 l 868 868 l 1042 868 l 1042 1042 l 868 1042 l 868 868 l 694 868 l 694 694 l 521 694 l 521 521 l 347 521 l 347 347 l 174 347 l 174 174 l 347 174 m 0 0 l 0 521 l 174 521 l 174 694 l 0 694 l 0 1215 l 521 1215 l 521 1042 l 694 1042 l 694 1215 l 1215 1215 l 1215 694 l 1042 694 l 1042 521 l 1215 521 l 1215 0 l 694 0 l 694 174 l 521 174 l 521 0 l 0 0 z "},"&":{"ha":1042,"x_min":0,"x_max":868,"o":"m 521 174 l 521 347 l 694 347 l 694 521 l 347 521 l 347 694 l 694 694 l 694 868 l 521 868 l 521 1042 l 347 1042 l 347 868 l 174 868 l 174 347 l 347 347 l 347 174 l 521 174 m 174 0 l 174 174 l 0 174 l 0 1042 l 174 1042 l 174 1215 l 694 1215 l 694 1042 l 868 1042 l 868 174 l 694 174 l 694 0 l 174 0 z "},"'":{"ha":694,"x_min":0,"x_max":521,"o":"m 347 694 l 347 1042 l 174 1042 l 174 694 l 347 694 m 0 521 l 0 1215 l 521 1215 l 521 521 l 0 521 z "},"(":{"ha":868,"x_min":0,"x_max":694,"o":"m 521 174 l 521 347 l 347 347 l 347 868 l 521 868 l 521 1042 l 347 1042 l 347 868 l 174 868 l 174 347 l 347 347 l 347 174 l 521 174 m 174 0 l 174 174 l 0 174 l 0 1042 l 174 1042 l 174 1215 l 694 1215 l 694 694 l 521 694 l 521 521 l 694 521 l 694 0 l 174 0 z "},")":{"ha":868,"x_min":0,"x_max":694,"o":"m 347 174 l 347 347 l 521 347 l 521 868 l 347 868 l 347 1042 l 174 1042 l 174 868 l 347 868 l 347 347 l 174 347 l 174 174 l 347 174 m 0 0 l 0 521 l 174 521 l 174 694 l 0 694 l 0 1215 l 521 1215 l 521 1042 l 694 1042 l 694 174 l 521 174 l 521 0 l 0 0 z "},"*":{"ha":1042,"x_min":0,"x_max":868,"o":"m 521 521 l 521 694 l 694 694 l 694 868 l 521 868 l 521 1042 l 347 1042 l 347 868 l 174 868 l 174 694 l 347 694 l 347 521 l 521 521 m 174 347 l 174 521 l 0 521 l 0 1042 l 174 1042 l 174 1215 l 694 1215 l 694 1042 l 868 1042 l 868 521 l 694 521 l 694 347 l 174 347 z "},"+":{"ha":1042,"x_min":0,"x_max":868,"o":"m 521 347 l 521 521 l 694 521 l 694 694 l 521 694 l 521 868 l 347 868 l 347 694 l 174 694 l 174 521 l 347 521 l 347 347 l 521 347 m 174 174 l 174 347 l 0 347 l 0 868 l 174 868 l 174 1042 l 694 1042 l 694 868 l 868 868 l 868 347 l 694 347 l 694 174 l 174 174 z "},",":{"ha":694,"x_min":0,"x_max":521,"o":"m 347 0 l 347 347 l 174 347 l 174 0 l 347 0 m 0 -174 l 0 521 l 521 521 l 521 -174 l 0 -174 z "},"-":{"ha":1042,"x_min":0,"x_max":868,"o":"m 694 521 l 694 694 l 174 694 l 174 521 l 694 521 m 0 347 l 0 868 l 868 868 l 868 347 l 0 347 z "},".":{"ha":694,"x_min":0,"x_max":521,"o":"m 347 174 l 347 347 l 174 347 l 174 174 l 347 174 m 0 0 l 0 521 l 521 521 l 521 0 l 0 0 z "},"/":{"ha":1389,"x_min":0,"x_max":1215,"o":"m 0 0 l 0 347 l 174 347 l 174 174 l 347 174 l 347 0 l 0 0 m 347 174 l 347 347 l 521 347 l 521 174 l 347 174 m 174 347 l 174 521 l 347 521 l 347 347 l 174 347 m 521 347 l 521 521 l 694 521 l 694 347 l 521 347 m 347 521 l 347 694 l 521 694 l 521 521 l 347 521 m 694 521 l 694 694 l 868 694 l 868 521 l 694 521 m 521 694 l 521 868 l 694 868 l 694 694 l 521 694 m 868 694 l 868 868 l 1042 868 l 1042 694 l 868 694 m 694 868 l 694 1042 l 868 1042 l 868 868 l 694 868 m 1042 868 l 1042 1042 l 868 1042 l 868 1215 l 1215 1215 l 1215 868 l 1042 868 z "},":":{"ha":694,"x_min":0,"x_max":521,"o":"m 347 174 l 347 347 l 174 347 l 174 174 l 347 174 m 0 0 l 0 521 l 521 521 l 521 0 l 0 0 m 347 868 l 347 1042 l 174 1042 l 174 868 l 347 868 m 0 694 l 0 1215 l 521 1215 l 521 694 l 0 694 z "},";":{"ha":694,"x_min":0,"x_max":521,"o":"m 347 0 l 347 347 l 174 347 l 174 0 l 347 0 m 0 -174 l 0 521 l 521 521 l 521 -174 l 0 -174 m 347 868 l 347 1042 l 174 1042 l 174 868 l 347 868 m 0 694 l 0 1215 l 521 1215 l 521 694 l 0 694 z "},"<":{"ha":868,"x_min":0,"x_max":694,"o":"m 174 174 l 174 347 l 347 347 l 347 174 l 174 174 m 347 0 l 347 174 l 521 174 l 521 347 l 694 347 l 694 0 l 347 0 m 0 347 l 0 521 l 174 521 l 174 347 l 0 347 m 347 347 l 347 521 l 521 521 l 521 347 l 347 347 m 174 521 l 174 694 l 347 694 l 347 521 l 174 521 m 521 521 l 521 694 l 347 694 l 347 868 l 694 868 l 694 521 l 521 521 z "},"=":{"ha":1042,"x_min":0,"x_max":868,"o":"m 694 347 l 694 521 l 174 521 l 174 347 l 694 347 m 694 694 l 694 868 l 174 868 l 174 694 l 694 694 m 0 174 l 0 1042 l 868 1042 l 868 174 l 0 174 z "},">":{"ha":868,"x_min":0,"x_max":694,"o":"m 0 0 l 0 347 l 174 347 l 174 174 l 347 174 l 347 0 l 0 0 m 347 174 l 347 347 l 521 347 l 521 174 l 347 174 m 174 347 l 174 521 l 347 521 l 347 347 l 174 347 m 521 347 l 521 521 l 694 521 l 694 347 l 521 347 m 347 521 l 347 694 l 521 694 l 521 521 l 347 521 m 0 521 l 0 868 l 347 868 l 347 694 l 174 694 l 174 521 l 0 521 z "},"?":{"ha":1042,"x_min":0,"x_max":868,"o":"m 521 174 l 521 347 l 347 347 l 347 174 l 521 174 m 521 521 l 521 694 l 694 694 l 694 1042 l 174 1042 l 174 868 l 521 868 l 521 694 l 347 694 l 347 521 l 521 521 m 174 0 l 174 694 l 0 694 l 0 1215 l 868 1215 l 868 521 l 694 521 l 694 0 l 174 0 z "},"@":{"ha":1042,"x_min":0,"x_max":868,"o":"m 694 174 l 694 347 l 347 347 l 347 868 l 521 868 l 521 521 l 694 521 l 694 1042 l 174 1042 l 174 174 l 694 174 m 0 0 l 0 1215 l 868 1215 l 868 0 l 0 0 z "},"A":{"ha":1042,"x_min":0,"x_max":868,"o":"m 347 694 l 347 868 l 521 868 l 521 694 l 347 694 m 694 174 l 694 1042 l 174 1042 l 174 174 l 347 174 l 347 521 l 521 521 l 521 174 l 694 174 m 0 0 l 0 1215 l 868 1215 l 868 0 l 0 0 z "},"B":{"ha":1042,"x_min":0,"x_max":868,"o":"m 347 347 l 347 521 l 521 521 l 521 347 l 347 347 m 347 694 l 347 868 l 521 868 l 521 694 l 347 694 m 694 174 l 694 521 l 521 521 l 521 694 l 694 694 l 694 1042 l 174 1042 l 174 174 l 694 174 m 0 0 l 0 1215 l 868 1215 l 868 0 l 0 0 z "},"C":{"ha":1042,"x_min":0,"x_max":868,"o":"m 694 174 l 694 347 l 347 347 l 347 868 l 694 868 l 694 1042 l 174 1042 l 174 174 l 694 174 m 0 0 l 0 1215 l 868 1215 l 868 694 l 521 694 l 521 521 l 868 521 l 868 0 l 0 0 z "},"D":{"ha":1042,"x_min":0,"x_max":868,"o":"m 347 347 l 347 868 l 521 868 l 521 347 l 347 347 m 521 174 l 521 347 l 694 347 l 694 868 l 521 868 l 521 1042 l 174 1042 l 174 174 l 521 174 m 0 0 l 0 1215 l 694 1215 l 694 1042 l 868 1042 l 868 174 l 694 174 l 694 0 l 0 0 z "},"E":{"ha":1042,"x_min":0,"x_max":868,"o":"m 694 174 l 694 347 l 347 347 l 347 521 l 694 521 l 694 694 l 347 694 l 347 868 l 694 868 l 694 1042 l 174 1042 l 174 174 l 694 174 m 0 0 l 0 1215 l 868 1215 l 868 0 l 0 0 z "},"F":{"ha":1042,"x_min":0,"x_max":868,"o":"m 347 174 l 347 521 l 694 521 l 694 694 l 347 694 l 347 868 l 694 868 l 694 1042 l 174 1042 l 174 174 l 347 174 m 0 0 l 0 1215 l 868 1215 l 868 347 l 521 347 l 521 0 l 0 0 z "},"G":{"ha":1042,"x_min":0,"x_max":868,"o":"m 694 174 l 694 694 l 521 694 l 521 347 l 347 347 l 347 868 l 694 868 l 694 1042 l 174 1042 l 174 174 l 694 174 m 0 0 l 0 1215 l 868 1215 l 868 0 l 0 0 z "},"H":{"ha":1042,"x_min":0,"x_max":868,"o":"m 694 174 l 694 1042 l 521 1042 l 521 694 l 347 694 l 347 1042 l 174 1042 l 174 174 l 347 174 l 347 521 l 521 521 l 521 174 l 694 174 m 0 0 l 0 1215 l 868 1215 l 868 0 l 0 0 z "},"I":{"ha":1042,"x_min":0,"x_max":868,"o":"m 694 174 l 694 347 l 521 347 l 521 868 l 694 868 l 694 1042 l 174 1042 l 174 868 l 347 868 l 347 347 l 174 347 l 174 174 l 694 174 m 0 0 l 0 521 l 174 521 l 174 694 l 0 694 l 0 1215 l 868 1215 l 868 694 l 694 694 l 694 521 l 868 521 l 868 0 l 0 0 z "},"J":{"ha":1042,"x_min":0,"x_max":868,"o":"m 521 174 l 521 347 l 694 347 l 694 1042 l 174 1042 l 174 868 l 521 868 l 521 347 l 174 347 l 174 174 l 521 174 m 0 0 l 0 521 l 347 521 l 347 694 l 0 694 l 0 1215 l 868 1215 l 868 174 l 694 174 l 694 0 l 0 0 z "},"K":{"ha":1042,"x_min":0,"x_max":868,"o":"m 694 174 l 694 521 l 521 521 l 521 694 l 694 694 l 694 1042 l 521 1042 l 521 694 l 347 694 l 347 1042 l 174 1042 l 174 174 l 347 174 l 347 521 l 521 521 l 521 174 l 694 174 m 0 0 l 0 1215 l 868 1215 l 868 0 l 0 0 z "},"L":{"ha":1042,"x_min":0,"x_max":868,"o":"m 694 174 l 694 347 l 347 347 l 347 1042 l 174 1042 l 174 174 l 694 174 m 0 0 l 0 1215 l 521 1215 l 521 521 l 868 521 l 868 0 l 0 0 z "},"M":{"ha":1389,"x_min":0,"x_max":1215,"o":"m 1042 174 l 1042 868 l 868 868 l 868 1042 l 174 1042 l 174 174 l 347 174 l 347 868 l 521 868 l 521 174 l 694 174 l 694 868 l 868 868 l 868 174 l 1042 174 m 0 0 l 0 1215 l 1042 1215 l 1042 1042 l 1215 1042 l 1215 0 l 0 0 z "},"N":{"ha":1042,"x_min":0,"x_max":868,"o":"m 694 174 l 694 868 l 521 868 l 521 1042 l 174 1042 l 174 174 l 347 174 l 347 868 l 521 868 l 521 174 l 694 174 m 0 0 l 0 1215 l 694 1215 l 694 1042 l 868 1042 l 868 0 l 0 0 z "},"O":{"ha":1042,"x_min":0,"x_max":868,"o":"m 347 347 l 347 868 l 521 868 l 521 347 l 347 347 m 694 174 l 694 1042 l 174 1042 l 174 174 l 694 174 m 0 0 l 0 1215 l 868 1215 l 868 0 l 0 0 z "},"P":{"ha":1042,"x_min":0,"x_max":868,"o":"m 347 694 l 347 868 l 521 868 l 521 694 l 347 694 m 347 174 l 347 521 l 694 521 l 694 1042 l 174 1042 l 174 174 l 347 174 m 0 0 l 0 1215 l 868 1215 l 868 347 l 521 347 l 521 0 l 0 0 z "},"Q":{"ha":1042,"x_min":0,"x_max":868,"o":"m 347 347 l 347 868 l 521 868 l 521 347 l 347 347 m 521 0 l 521 174 l 694 174 l 694 1042 l 174 1042 l 174 174 l 347 174 l 347 0 l 521 0 m 174 -174 l 174 0 l 0 0 l 0 1215 l 868 1215 l 868 0 l 694 0 l 694 -174 l 174 -174 z "},"R":{"ha":1042,"x_min":0,"x_max":868,"o":"m 347 694 l 347 868 l 521 868 l 521 694 l 347 694 m 694 174 l 694 521 l 521 521 l 521 694 l 694 694 l 694 1042 l 174 1042 l 174 174 l 347 174 l 347 521 l 521 521 l 521 174 l 694 174 m 0 0 l 0 1215 l 868 1215 l 868 0 l 0 0 z "},"S":{"ha":1042,"x_min":0,"x_max":868,"o":"m 694 174 l 694 694 l 347 694 l 347 868 l 694 868 l 694 1042 l 174 1042 l 174 521 l 521 521 l 521 347 l 174 347 l 174 174 l 694 174 m 0 0 l 0 1215 l 868 1215 l 868 0 l 0 0 z "},"T":{"ha":1042,"x_min":0,"x_max":868,"o":"m 521 174 l 521 868 l 694 868 l 694 1042 l 174 1042 l 174 868 l 347 868 l 347 174 l 521 174 m 174 0 l 174 694 l 0 694 l 0 1215 l 868 1215 l 868 694 l 694 694 l 694 0 l 174 0 z "},"U":{"ha":1042,"x_min":0,"x_max":868,"o":"m 694 174 l 694 1042 l 521 1042 l 521 347 l 347 347 l 347 1042 l 174 1042 l 174 174 l 694 174 m 0 0 l 0 1215 l 868 1215 l 868 0 l 0 0 z "},"V":{"ha":1042,"x_min":0,"x_max":868,"o":"m 521 174 l 521 347 l 694 347 l 694 1042 l 521 1042 l 521 347 l 347 347 l 347 1042 l 174 1042 l 174 347 l 347 347 l 347 174 l 521 174 m 174 0 l 174 174 l 0 174 l 0 1215 l 868 1215 l 868 174 l 694 174 l 694 0 l 174 0 z "},"W":{"ha":1389,"x_min":0,"x_max":1215,"o":"m 868 174 l 868 347 l 1042 347 l 1042 1042 l 868 1042 l 868 347 l 694 347 l 694 1042 l 521 1042 l 521 347 l 347 347 l 347 1042 l 174 1042 l 174 174 l 868 174 m 0 0 l 0 1215 l 1215 1215 l 1215 174 l 1042 174 l 1042 0 l 0 0 z "},"X":{"ha":1042,"x_min":0,"x_max":868,"o":"m 694 174 l 694 521 l 521 521 l 521 694 l 694 694 l 694 1042 l 521 1042 l 521 694 l 347 694 l 347 1042 l 174 1042 l 174 694 l 347 694 l 347 521 l 174 521 l 174 174 l 347 174 l 347 521 l 521 521 l 521 174 l 694 174 m 0 0 l 0 1215 l 868 1215 l 868 0 l 0 0 z "},"Y":{"ha":1042,"x_min":0,"x_max":868,"o":"m 521 174 l 521 521 l 694 521 l 694 1042 l 521 1042 l 521 694 l 347 694 l 347 1042 l 174 1042 l 174 521 l 347 521 l 347 174 l 521 174 m 174 0 l 174 347 l 0 347 l 0 1215 l 868 1215 l 868 347 l 694 347 l 694 0 l 174 0 z "},"Z":{"ha":1042,"x_min":0,"x_max":868,"o":"m 694 174 l 694 347 l 347 347 l 347 521 l 694 521 l 694 1042 l 174 1042 l 174 868 l 521 868 l 521 694 l 174 694 l 174 174 l 694 174 m 0 0 l 0 1215 l 868 1215 l 868 0 l 0 0 z "},"[":{"ha":868,"x_min":0,"x_max":694,"o":"m 521 174 l 521 347 l 347 347 l 347 868 l 521 868 l 521 1042 l 174 1042 l 174 174 l 521 174 m 0 0 l 0 1215 l 694 1215 l 694 694 l 521 694 l 521 521 l 694 521 l 694 0 l 0 0 z "},"\\":{"ha":1389,"x_min":0,"x_max":1215,"o":"m 694 174 l 694 347 l 868 347 l 868 174 l 694 174 m 868 0 l 868 174 l 1042 174 l 1042 347 l 1215 347 l 1215 0 l 868 0 m 521 347 l 521 521 l 694 521 l 694 347 l 521 347 m 868 347 l 868 521 l 1042 521 l 1042 347 l 868 347 m 347 521 l 347 694 l 521 694 l 521 521 l 347 521 m 694 521 l 694 694 l 868 694 l 868 521 l 694 521 m 174 694 l 174 868 l 347 868 l 347 694 l 174 694 m 521 694 l 521 868 l 694 868 l 694 694 l 521 694 m 347 868 l 347 1042 l 521 1042 l 521 868 l 347 868 m 0 868 l 0 1215 l 347 1215 l 347 1042 l 174 1042 l 174 868 l 0 868 z "},"]":{"ha":868,"x_min":0,"x_max":694,"o":"m 521 174 l 521 1042 l 174 1042 l 174 868 l 347 868 l 347 347 l 174 347 l 174 174 l 521 174 m 0 0 l 0 521 l 174 521 l 174 694 l 0 694 l 0 1215 l 694 1215 l 694 0 l 0 0 z "},"^":{"ha":1042,"x_min":0,"x_max":868,"o":"m 0 521 l 0 868 l 174 868 l 174 694 l 347 694 l 347 521 l 0 521 m 347 694 l 347 868 l 521 868 l 521 694 l 347 694 m 521 521 l 521 694 l 694 694 l 694 868 l 868 868 l 868 521 l 521 521 m 174 868 l 174 1042 l 347 1042 l 347 868 l 174 868 m 521 868 l 521 1042 l 694 1042 l 694 868 l 521 868 m 347 1042 l 347 1215 l 521 1215 l 521 1042 l 347 1042 z "},"_":{"ha":1042,"x_min":0,"x_max":868,"o":"m 694 174 l 694 347 l 174 347 l 174 174 l 694 174 m 0 0 l 0 521 l 868 521 l 868 0 l 0 0 z "},"`":{"ha":694,"x_min":0,"x_max":521,"o":"m 347 694 l 347 1042 l 174 1042 l 174 694 l 347 694 m 0 521 l 0 1215 l 521 1215 l 521 521 l 0 521 z "},"a":{"ha":1042,"x_min":0,"x_max":868,"o":"m 347 694 l 347 868 l 521 868 l 521 694 l 347 694 m 694 174 l 694 1042 l 174 1042 l 174 174 l 347 174 l 347 521 l 521 521 l 521 174 l 694 174 m 0 0 l 0 1215 l 868 1215 l 868 0 l 0 0 z "},"b":{"ha":1042,"x_min":0,"x_max":868,"o":"m 347 347 l 347 521 l 521 521 l 521 347 l 347 347 m 347 694 l 347 868 l 521 868 l 521 694 l 347 694 m 694 174 l 694 521 l 521 521 l 521 694 l 694 694 l 694 1042 l 174 1042 l 174 174 l 694 174 m 0 0 l 0 1215 l 868 1215 l 868 0 l 0 0 z "},"c":{"ha":1042,"x_min":0,"x_max":868,"o":"m 694 174 l 694 347 l 347 347 l 347 868 l 694 868 l 694 1042 l 174 1042 l 174 174 l 694 174 m 0 0 l 0 1215 l 868 1215 l 868 694 l 521 694 l 521 521 l 868 521 l 868 0 l 0 0 z "},"d":{"ha":1042,"x_min":0,"x_max":868,"o":"m 347 347 l 347 868 l 521 868 l 521 347 l 347 347 m 521 174 l 521 347 l 694 347 l 694 868 l 521 868 l 521 1042 l 174 1042 l 174 174 l 521 174 m 0 0 l 0 1215 l 694 1215 l 694 1042 l 868 1042 l 868 174 l 694 174 l 694 0 l 0 0 z "},"e":{"ha":1042,"x_min":0,"x_max":868,"o":"m 694 174 l 694 347 l 347 347 l 347 521 l 694 521 l 694 694 l 347 694 l 347 868 l 694 868 l 694 1042 l 174 1042 l 174 174 l 694 174 m 0 0 l 0 1215 l 868 1215 l 868 0 l 0 0 z "},"f":{"ha":1042,"x_min":0,"x_max":868,"o":"m 347 174 l 347 521 l 694 521 l 694 694 l 347 694 l 347 868 l 694 868 l 694 1042 l 174 1042 l 174 174 l 347 174 m 0 0 l 0 1215 l 868 1215 l 868 347 l 521 347 l 521 0 l 0 0 z "},"g":{"ha":1042,"x_min":0,"x_max":868,"o":"m 694 174 l 694 694 l 521 694 l 521 347 l 347 347 l 347 868 l 694 868 l 694 1042 l 174 1042 l 174 174 l 694 174 m 0 0 l 0 1215 l 868 1215 l 868 0 l 0 0 z "},"h":{"ha":1042,"x_min":0,"x_max":868,"o":"m 694 174 l 694 1042 l 521 1042 l 521 694 l 347 694 l 347 1042 l 174 1042 l 174 174 l 347 174 l 347 521 l 521 521 l 521 174 l 694 174 m 0 0 l 0 1215 l 868 1215 l 868 0 l 0 0 z "},"i":{"ha":1042,"x_min":0,"x_max":868,"o":"m 694 174 l 694 347 l 521 347 l 521 868 l 694 868 l 694 1042 l 174 1042 l 174 868 l 347 868 l 347 347 l 174 347 l 174 174 l 694 174 m 0 0 l 0 521 l 174 521 l 174 694 l 0 694 l 0 1215 l 868 1215 l 868 694 l 694 694 l 694 521 l 868 521 l 868 0 l 0 0 z "},"j":{"ha":1042,"x_min":0,"x_max":868,"o":"m 521 174 l 521 347 l 694 347 l 694 1042 l 174 1042 l 174 868 l 521 868 l 521 347 l 174 347 l 174 174 l 521 174 m 0 0 l 0 521 l 347 521 l 347 694 l 0 694 l 0 1215 l 868 1215 l 868 174 l 694 174 l 694 0 l 0 0 z "},"k":{"ha":1042,"x_min":0,"x_max":868,"o":"m 694 174 l 694 521 l 521 521 l 521 694 l 694 694 l 694 1042 l 521 1042 l 521 694 l 347 694 l 347 1042 l 174 1042 l 174 174 l 347 174 l 347 521 l 521 521 l 521 174 l 694 174 m 0 0 l 0 1215 l 868 1215 l 868 0 l 0 0 z "},"l":{"ha":1042,"x_min":0,"x_max":868,"o":"m 694 174 l 694 347 l 347 347 l 347 1042 l 174 1042 l 174 174 l 694 174 m 0 0 l 0 1215 l 521 1215 l 521 521 l 868 521 l 868 0 l 0 0 z "},"m":{"ha":1389,"x_min":0,"x_max":1215,"o":"m 1042 174 l 1042 868 l 868 868 l 868 1042 l 174 1042 l 174 174 l 347 174 l 347 868 l 521 868 l 521 174 l 694 174 l 694 868 l 868 868 l 868 174 l 1042 174 m 0 0 l 0 1215 l 1042 1215 l 1042 1042 l 1215 1042 l 1215 0 l 0 0 z "},"n":{"ha":1042,"x_min":0,"x_max":868,"o":"m 694 174 l 694 868 l 521 868 l 521 1042 l 174 1042 l 174 174 l 347 174 l 347 868 l 521 868 l 521 174 l 694 174 m 0 0 l 0 1215 l 694 1215 l 694 1042 l 868 1042 l 868 0 l 0 0 z "},"o":{"ha":1042,"x_min":0,"x_max":868,"o":"m 347 347 l 347 868 l 521 868 l 521 347 l 347 347 m 694 174 l 694 1042 l 174 1042 l 174 174 l 694 174 m 0 0 l 0 1215 l 868 1215 l 868 0 l 0 0 z "},"p":{"ha":1042,"x_min":0,"x_max":868,"o":"m 347 694 l 347 868 l 521 868 l 521 694 l 347 694 m 347 174 l 347 521 l 694 521 l 694 1042 l 174 1042 l 174 174 l 347 174 m 0 0 l 0 1215 l 868 1215 l 868 347 l 521 347 l 521 0 l 0 0 z "},"q":{"ha":1042,"x_min":0,"x_max":868,"o":"m 347 347 l 347 868 l 521 868 l 521 347 l 347 347 m 521 0 l 521 174 l 694 174 l 694 1042 l 174 1042 l 174 174 l 347 174 l 347 0 l 521 0 m 174 -174 l 174 0 l 0 0 l 0 1215 l 868 1215 l 868 0 l 694 0 l 694 -174 l 174 -174 z "},"r":{"ha":1042,"x_min":0,"x_max":868,"o":"m 347 694 l 347 868 l 521 868 l 521 694 l 347 694 m 694 174 l 694 521 l 521 521 l 521 694 l 694 694 l 694 1042 l 174 1042 l 174 174 l 347 174 l 347 521 l 521 521 l 521 174 l 694 174 m 0 0 l 0 1215 l 868 1215 l 868 0 l 0 0 z "},"s":{"ha":1042,"x_min":0,"x_max":868,"o":"m 694 174 l 694 694 l 347 694 l 347 868 l 694 868 l 694 1042 l 174 1042 l 174 521 l 521 521 l 521 347 l 174 347 l 174 174 l 694 174 m 0 0 l 0 1215 l 868 1215 l 868 0 l 0 0 z "},"t":{"ha":1042,"x_min":0,"x_max":868,"o":"m 521 174 l 521 868 l 694 868 l 694 1042 l 174 1042 l 174 868 l 347 868 l 347 174 l 521 174 m 174 0 l 174 694 l 0 694 l 0 1215 l 868 1215 l 868 694 l 694 694 l 694 0 l 174 0 z "},"u":{"ha":1042,"x_min":0,"x_max":868,"o":"m 694 174 l 694 1042 l 521 1042 l 521 347 l 347 347 l 347 1042 l 174 1042 l 174 174 l 694 174 m 0 0 l 0 1215 l 868 1215 l 868 0 l 0 0 z "},"v":{"ha":1042,"x_min":0,"x_max":868,"o":"m 521 174 l 521 347 l 694 347 l 694 1042 l 521 1042 l 521 347 l 347 347 l 347 1042 l 174 1042 l 174 347 l 347 347 l 347 174 l 521 174 m 174 0 l 174 174 l 0 174 l 0 1215 l 868 1215 l 868 174 l 694 174 l 694 0 l 174 0 z "},"w":{"ha":1389,"x_min":0,"x_max":1215,"o":"m 868 174 l 868 347 l 1042 347 l 1042 1042 l 868 1042 l 868 347 l 694 347 l 694 1042 l 521 1042 l 521 347 l 347 347 l 347 1042 l 174 1042 l 174 174 l 868 174 m 0 0 l 0 1215 l 1215 1215 l 1215 174 l 1042 174 l 1042 0 l 0 0 z "},"x":{"ha":1042,"x_min":0,"x_max":868,"o":"m 694 174 l 694 521 l 521 521 l 521 694 l 694 694 l 694 1042 l 521 1042 l 521 694 l 347 694 l 347 1042 l 174 1042 l 174 694 l 347 694 l 347 521 l 174 521 l 174 174 l 347 174 l 347 521 l 521 521 l 521 174 l 694 174 m 0 0 l 0 1215 l 868 1215 l 868 0 l 0 0 z "},"y":{"ha":1042,"x_min":0,"x_max":868,"o":"m 521 174 l 521 521 l 694 521 l 694 1042 l 521 1042 l 521 694 l 347 694 l 347 1042 l 174 1042 l 174 521 l 347 521 l 347 174 l 521 174 m 174 0 l 174 347 l 0 347 l 0 1215 l 868 1215 l 868 347 l 694 347 l 694 0 l 174 0 z "},"z":{"ha":1042,"x_min":0,"x_max":868,"o":"m 694 174 l 694 347 l 347 347 l 347 521 l 694 521 l 694 1042 l 174 1042 l 174 868 l 521 868 l 521 694 l 174 694 l 174 174 l 694 174 m 0 0 l 0 1215 l 868 1215 l 868 0 l 0 0 z "},"{":{"ha":1042,"x_min":0,"x_max":868,"o":"m 694 174 l 694 347 l 521 347 l 521 868 l 694 868 l 694 1042 l 347 1042 l 347 694 l 174 694 l 174 521 l 347 521 l 347 174 l 694 174 m 174 0 l 174 347 l 0 347 l 0 868 l 174 868 l 174 1215 l 868 1215 l 868 694 l 694 694 l 694 521 l 868 521 l 868 0 l 174 0 z "},"|":{"ha":694,"x_min":0,"x_max":521,"o":"m 347 174 l 347 1042 l 174 1042 l 174 174 l 347 174 m 0 0 l 0 1215 l 521 1215 l 521 0 l 0 0 z "},"}":{"ha":1042,"x_min":0,"x_max":868,"o":"m 521 174 l 521 521 l 694 521 l 694 694 l 521 694 l 521 1042 l 174 1042 l 174 868 l 347 868 l 347 347 l 174 347 l 174 174 l 521 174 m 0 0 l 0 521 l 174 521 l 174 694 l 0 694 l 0 1215 l 694 1215 l 694 868 l 868 868 l 868 347 l 694 347 l 694 0 l 0 0 z "},"~":{"ha":1563,"x_min":0,"x_max":1389,"o":"m 1042 347 l 1042 521 l 1215 521 l 1215 694 l 1042 694 l 1042 521 l 694 521 l 694 694 l 347 694 l 347 521 l 174 521 l 174 347 l 347 347 l 347 521 l 694 521 l 694 347 l 1042 347 m 0 174 l 0 694 l 174 694 l 174 868 l 1389 868 l 1389 347 l 1215 347 l 1215 174 l 0 174 z "},"¡":{"ha":694,"x_min":0,"x_max":521,"o":"m 347 174 l 347 694 l 174 694 l 174 174 l 347 174 m 347 868 l 347 1042 l 174 1042 l 174 868 l 347 868 m 0 0 l 0 1215 l 521 1215 l 521 0 l 0 0 z "},"¢":{"ha":1042,"x_min":0,"x_max":868,"o":"m 521 174 l 521 347 l 694 347 l 694 521 l 347 521 l 347 694 l 694 694 l 694 868 l 521 868 l 521 1042 l 347 1042 l 347 868 l 174 868 l 174 347 l 347 347 l 347 174 l 521 174 m 174 0 l 174 174 l 0 174 l 0 1042 l 174 1042 l 174 1215 l 694 1215 l 694 1042 l 868 1042 l 868 174 l 694 174 l 694 0 l 174 0 z "},"£":{"ha":1215,"x_min":0,"x_max":1042,"o":"m 868 174 l 868 347 l 521 347 l 521 521 l 694 521 l 694 694 l 521 694 l 521 868 l 868 868 l 868 1042 l 521 1042 l 521 868 l 347 868 l 347 694 l 174 694 l 174 521 l 347 521 l 347 174 l 868 174 m 174 0 l 174 347 l 0 347 l 0 868 l 174 868 l 174 1042 l 347 1042 l 347 1215 l 1042 1215 l 1042 694 l 868 694 l 868 521 l 1042 521 l 1042 0 l 174 0 z "},"¤":{"ha":1389,"x_min":0,"x_max":1215,"o":"m 521 521 l 521 694 l 694 694 l 694 521 l 521 521 m 1042 174 l 1042 347 l 868 347 l 868 868 l 1042 868 l 1042 1042 l 868 1042 l 868 868 l 347 868 l 347 1042 l 174 1042 l 174 868 l 347 868 l 347 347 l 174 347 l 174 174 l 347 174 l 347 347 l 868 347 l 868 174 l 1042 174 m 0 0 l 0 521 l 174 521 l 174 694 l 0 694 l 0 1215 l 521 1215 l 521 1042 l 694 1042 l 694 1215 l 1215 1215 l 1215 694 l 1042 694 l 1042 521 l 1215 521 l 1215 0 l 694 0 l 694 174 l 521 174 l 521 0 l 0 0 z "},"¥":{"ha":1042,"x_min":0,"x_max":868,"o":"m 521 174 l 521 347 l 694 347 l 694 521 l 521 521 l 521 694 l 694 694 l 694 1042 l 521 1042 l 521 868 l 347 868 l 347 1042 l 174 1042 l 174 694 l 347 694 l 347 521 l 174 521 l 174 347 l 347 347 l 347 174 l 521 174 m 174 0 l 174 174 l 0 174 l 0 1215 l 868 1215 l 868 174 l 694 174 l 694 0 l 174 0 z "},"¦":{"ha":694,"x_min":0,"x_max":521,"o":"m 347 174 l 347 521 l 174 521 l 174 174 l 347 174 m 347 694 l 347 1042 l 174 1042 l 174 694 l 347 694 m 0 0 l 0 1215 l 521 1215 l 521 0 l 0 0 z "},"§":{"ha":1042,"x_min":0,"x_max":868,"o":"m 521 174 l 521 347 l 694 347 l 694 521 l 521 521 l 521 694 l 347 694 l 347 868 l 694 868 l 694 1042 l 347 1042 l 347 868 l 174 868 l 174 694 l 347 694 l 347 521 l 521 521 l 521 347 l 174 347 l 174 174 l 521 174 m 0 0 l 0 1042 l 174 1042 l 174 1215 l 868 1215 l 868 174 l 694 174 l 694 0 l 0 0 z "},"¨":{"ha":1042,"x_min":0,"x_max":868,"o":"m 347 868 l 347 1042 l 174 1042 l 174 868 l 347 868 m 694 868 l 694 1042 l 521 1042 l 521 868 l 694 868 m 0 694 l 0 1215 l 868 1215 l 868 694 l 0 694 z "},"©":{"ha":1042,"x_min":0,"x_max":868,"o":"m 174 174 l 174 347 l 694 347 l 694 174 l 174 174 m 0 347 l 0 868 l 174 868 l 174 347 l 0 347 m 694 347 l 694 521 l 347 521 l 347 694 l 694 694 l 694 868 l 868 868 l 868 347 l 694 347 m 174 868 l 174 1042 l 694 1042 l 694 868 l 174 868 z "},"ª":{"ha":868,"x_min":0,"x_max":694,"o":"m 521 521 l 521 1042 l 174 1042 l 174 868 l 347 868 l 347 694 l 174 694 l 174 521 l 521 521 m 0 347 l 0 1215 l 694 1215 l 694 347 l 0 347 z "},"«":{"ha":1563,"x_min":0,"x_max":1389,"o":"m 694 174 l 694 347 l 521 347 l 521 521 l 347 521 l 347 694 l 521 694 l 521 868 l 694 868 l 694 1042 l 521 1042 l 521 868 l 347 868 l 347 694 l 174 694 l 174 521 l 347 521 l 347 347 l 521 347 l 521 174 l 694 174 m 1215 174 l 1215 347 l 1042 347 l 1042 521 l 868 521 l 868 694 l 1042 694 l 1042 868 l 1215 868 l 1215 1042 l 1042 1042 l 1042 868 l 868 868 l 868 694 l 694 694 l 694 521 l 868 521 l 868 347 l 1042 347 l 1042 174 l 1215 174 m 347 0 l 347 174 l 174 174 l 174 347 l 0 347 l 0 868 l 174 868 l 174 1042 l 347 1042 l 347 1215 l 1389 1215 l 1389 694 l 1215 694 l 1215 521 l 1389 521 l 1389 0 l 347 0 z "},"¬":{"ha":1042,"x_min":0,"x_max":868,"o":"m 694 347 l 694 694 l 174 694 l 174 521 l 521 521 l 521 347 l 694 347 m 347 174 l 347 347 l 0 347 l 0 868 l 868 868 l 868 174 l 347 174 z "},"­":{"ha":1042,"x_min":0,"x_max":868,"o":"m 694 521 l 694 694 l 174 694 l 174 521 l 694 521 m 0 347 l 0 868 l 868 868 l 868 347 l 0 347 z "},"®":{"ha":1042,"x_min":0,"x_max":868,"o":"m 0 347 l 0 868 l 174 868 l 174 347 l 0 347 m 174 174 l 174 347 l 347 347 l 347 694 l 694 694 l 694 868 l 868 868 l 868 347 l 694 347 l 694 174 l 174 174 m 174 868 l 174 1042 l 694 1042 l 694 868 l 174 868 z "},"¯":{"ha":1042,"x_min":0,"x_max":868,"o":"m 694 868 l 694 1042 l 174 1042 l 174 868 l 694 868 m 0 694 l 0 1215 l 868 1215 l 868 694 l 0 694 z "},"°":{"ha":694,"x_min":0,"x_max":521,"o":"m 347 868 l 347 1042 l 174 1042 l 174 868 l 347 868 m 0 694 l 0 1215 l 521 1215 l 521 694 l 0 694 z "},"±":{"ha":1042,"x_min":0,"x_max":868,"o":"m 694 174 l 694 347 l 174 347 l 174 174 l 694 174 m 521 521 l 521 694 l 694 694 l 694 868 l 521 868 l 521 1042 l 347 1042 l 347 868 l 174 868 l 174 694 l 347 694 l 347 521 l 521 521 m 0 0 l 0 1042 l 174 1042 l 174 1215 l 694 1215 l 694 1042 l 868 1042 l 868 0 l 0 0 z "},"²":{"ha":868,"x_min":0,"x_max":694,"o":"m 521 347 l 521 1042 l 174 1042 l 174 868 l 347 868 l 347 347 l 521 347 m 174 174 l 174 694 l 0 694 l 0 1215 l 694 1215 l 694 174 l 174 174 z "},"³":{"ha":868,"x_min":0,"x_max":694,"o":"m 521 347 l 521 521 l 347 521 l 347 694 l 521 694 l 521 1042 l 174 1042 l 174 868 l 347 868 l 347 694 l 174 694 l 174 347 l 521 347 m 0 174 l 0 1215 l 694 1215 l 694 174 l 0 174 z "},"´":{"ha":868,"x_min":0,"x_max":694,"o":"m 521 868 l 521 1042 l 174 1042 l 174 868 l 521 868 m 0 694 l 0 1215 l 694 1215 l 694 694 l 0 694 z "},"µ":{"ha":1042,"x_min":0,"x_max":868,"o":"m 347 174 l 347 521 l 521 521 l 521 694 l 694 694 l 694 1042 l 521 1042 l 521 694 l 347 694 l 347 1042 l 174 1042 l 174 174 l 347 174 m 0 0 l 0 1215 l 868 1215 l 868 521 l 694 521 l 694 347 l 521 347 l 521 0 l 0 0 z "},"¶":{"ha":1215,"x_min":0,"x_max":1042,"o":"m 868 174 l 868 1042 l 174 1042 l 174 694 l 347 694 l 347 174 l 521 174 l 521 868 l 694 868 l 694 174 l 868 174 m 174 0 l 174 521 l 0 521 l 0 1215 l 1042 1215 l 1042 0 l 174 0 z "},"·":{"ha":694,"x_min":0,"x_max":521,"o":"m 347 521 l 347 694 l 174 694 l 174 521 l 347 521 m 0 347 l 0 868 l 521 868 l 521 347 l 0 347 z "},"¸":{"ha":694,"x_min":0,"x_max":521,"o":"m 347 -174 l 347 174 l 174 174 l 174 -174 l 347 -174 m 0 -347 l 0 347 l 521 347 l 521 -347 l 0 -347 z "},"¹":{"ha":868,"x_min":0,"x_max":694,"o":"m 521 521 l 521 1042 l 174 1042 l 174 868 l 347 868 l 347 521 l 521 521 m 174 347 l 174 694 l 0 694 l 0 1215 l 694 1215 l 694 347 l 174 347 z "},"º":{"ha":694,"x_min":0,"x_max":521,"o":"m 347 868 l 347 1042 l 174 1042 l 174 868 l 347 868 m 0 694 l 0 1215 l 521 1215 l 521 694 l 0 694 z "},"»":{"ha":1563,"x_min":0,"x_max":1389,"o":"m 347 174 l 347 347 l 521 347 l 521 521 l 694 521 l 694 694 l 521 694 l 521 868 l 347 868 l 347 1042 l 174 1042 l 174 868 l 347 868 l 347 694 l 521 694 l 521 521 l 347 521 l 347 347 l 174 347 l 174 174 l 347 174 m 868 174 l 868 347 l 1042 347 l 1042 521 l 1215 521 l 1215 694 l 1042 694 l 1042 868 l 868 868 l 868 1042 l 694 1042 l 694 868 l 868 868 l 868 694 l 1042 694 l 1042 521 l 868 521 l 868 347 l 694 347 l 694 174 l 868 174 m 0 0 l 0 521 l 174 521 l 174 694 l 0 694 l 0 1215 l 1042 1215 l 1042 1042 l 1215 1042 l 1215 868 l 1389 868 l 1389 347 l 1215 347 l 1215 174 l 1042 174 l 1042 0 l 0 0 z "},"¼":{"ha":1215,"x_min":0,"x_max":1042,"o":"m 0 0 l 0 174 l 174 174 l 174 0 l 0 0 m 174 174 l 174 347 l 347 347 l 347 174 l 174 174 m 868 0 l 868 174 l 521 174 l 521 521 l 694 521 l 694 347 l 868 347 l 868 521 l 1042 521 l 1042 0 l 868 0 m 694 694 l 694 868 l 868 868 l 868 694 l 694 694 m 174 521 l 174 868 l 0 868 l 0 1042 l 347 1042 l 347 521 l 174 521 m 868 868 l 868 1042 l 1042 1042 l 1042 868 l 868 868 z "},"½":{"ha":1215,"x_min":0,"x_max":1042,"o":"m 0 0 l 0 174 l 174 174 l 174 0 l 0 0 m 174 174 l 174 347 l 347 347 l 347 174 l 174 174 m 694 0 l 694 347 l 521 347 l 521 521 l 868 521 l 868 174 l 1042 174 l 1042 0 l 694 0 m 694 694 l 694 868 l 868 868 l 868 694 l 694 694 m 174 521 l 174 868 l 0 868 l 0 1042 l 347 1042 l 347 521 l 174 521 m 868 868 l 868 1042 l 1042 1042 l 1042 868 l 868 868 z "},"¾":{"ha":1215,"x_min":0,"x_max":1042,"o":"m 0 0 l 0 174 l 174 174 l 174 0 l 0 0 m 174 174 l 174 347 l 347 347 l 347 174 l 174 174 m 868 0 l 868 174 l 521 174 l 521 521 l 694 521 l 694 347 l 868 347 l 868 521 l 1042 521 l 1042 0 l 868 0 m 694 694 l 694 868 l 868 868 l 868 694 l 694 694 m 0 521 l 0 694 l 174 694 l 174 868 l 0 868 l 0 1042 l 521 1042 l 521 521 l 0 521 m 868 868 l 868 1042 l 1042 1042 l 1042 868 l 868 868 z "},"¿":{"ha":1042,"x_min":0,"x_max":868,"o":"m 694 174 l 694 347 l 347 347 l 347 521 l 521 521 l 521 694 l 347 694 l 347 521 l 174 521 l 174 174 l 694 174 m 521 868 l 521 1042 l 347 1042 l 347 868 l 521 868 m 0 0 l 0 694 l 174 694 l 174 1215 l 694 1215 l 694 521 l 868 521 l 868 0 l 0 0 z "},"À":{"ha":1042,"x_min":0,"x_max":868,"o":"m 347 694 l 347 868 l 521 868 l 521 694 l 347 694 m 694 174 l 694 1042 l 174 1042 l 174 174 l 347 174 l 347 521 l 521 521 l 521 174 l 694 174 m 521 1215 l 521 1389 l 174 1389 l 174 1215 l 521 1215 m 0 0 l 0 1563 l 694 1563 l 694 1215 l 868 1215 l 868 0 l 0 0 z "},"Á":{"ha":1042,"x_min":0,"x_max":868,"o":"m 347 694 l 347 868 l 521 868 l 521 694 l 347 694 m 694 174 l 694 1042 l 174 1042 l 174 174 l 347 174 l 347 521 l 521 521 l 521 174 l 694 174 m 694 1215 l 694 1389 l 347 1389 l 347 1215 l 694 1215 m 0 0 l 0 1215 l 174 1215 l 174 1563 l 868 1563 l 868 0 l 0 0 z "},"Â":{"ha":1042,"x_min":0,"x_max":868,"o":"m 347 694 l 347 868 l 521 868 l 521 694 l 347 694 m 694 174 l 694 1042 l 174 1042 l 174 174 l 347 174 l 347 521 l 521 521 l 521 174 l 694 174 m 694 1215 l 694 1389 l 521 1389 l 521 1563 l 347 1563 l 347 1389 l 174 1389 l 174 1215 l 347 1215 l 347 1389 l 521 1389 l 521 1215 l 694 1215 m 0 0 l 0 1563 l 174 1563 l 174 1736 l 694 1736 l 694 1563 l 868 1563 l 868 0 l 0 0 z "},"Ã":{"ha":1042,"x_min":0,"x_max":868,"o":"m 347 694 l 347 868 l 521 868 l 521 694 l 347 694 m 694 174 l 694 1042 l 174 1042 l 174 174 l 347 174 l 347 521 l 521 521 l 521 174 l 694 174 m 694 1215 l 694 1389 l 174 1389 l 174 1215 l 694 1215 m 0 0 l 0 1563 l 868 1563 l 868 0 l 0 0 z "},"Ä":{"ha":1042,"x_min":0,"x_max":868,"o":"m 347 694 l 347 868 l 521 868 l 521 694 l 347 694 m 694 174 l 694 1042 l 174 1042 l 174 174 l 347 174 l 347 521 l 521 521 l 521 174 l 694 174 m 347 1215 l 347 1389 l 174 1389 l 174 1215 l 347 1215 m 694 1215 l 694 1389 l 521 1389 l 521 1215 l 694 1215 m 0 0 l 0 1563 l 868 1563 l 868 0 l 0 0 z "},"Å":{"ha":1042,"x_min":0,"x_max":868,"o":"m 347 694 l 347 868 l 521 868 l 521 694 l 347 694 m 694 174 l 694 1042 l 174 1042 l 174 174 l 347 174 l 347 521 l 521 521 l 521 174 l 694 174 m 521 1215 l 521 1389 l 347 1389 l 347 1215 l 521 1215 m 0 0 l 0 1215 l 174 1215 l 174 1563 l 694 1563 l 694 1215 l 868 1215 l 868 0 l 0 0 z "},"Æ":{"ha":1389,"x_min":0,"x_max":1215,"o":"m 347 694 l 347 868 l 521 868 l 521 694 l 347 694 m 1042 174 l 1042 347 l 694 347 l 694 521 l 1042 521 l 1042 694 l 694 694 l 694 868 l 1042 868 l 1042 1042 l 174 1042 l 174 174 l 347 174 l 347 521 l 521 521 l 521 174 l 1042 174 m 0 0 l 0 1215 l 1215 1215 l 1215 0 l 0 0 z "},"Ç":{"ha":1042,"x_min":0,"x_max":868,"o":"m 521 0 l 521 174 l 694 174 l 694 347 l 347 347 l 347 868 l 694 868 l 694 1042 l 174 1042 l 174 174 l 347 174 l 347 0 l 521 0 m 174 -174 l 174 0 l 0 0 l 0 1215 l 868 1215 l 868 694 l 521 694 l 521 521 l 868 521 l 868 0 l 694 0 l 694 -174 l 174 -174 z "},"È":{"ha":1042,"x_min":0,"x_max":868,"o":"m 694 174 l 694 347 l 347 347 l 347 521 l 694 521 l 694 694 l 347 694 l 347 868 l 694 868 l 694 1042 l 174 1042 l 174 174 l 694 174 m 521 1215 l 521 1389 l 174 1389 l 174 1215 l 521 1215 m 0 0 l 0 1563 l 694 1563 l 694 1215 l 868 1215 l 868 0 l 0 0 z "},"É":{"ha":1042,"x_min":0,"x_max":868,"o":"m 694 174 l 694 347 l 347 347 l 347 521 l 694 521 l 694 694 l 347 694 l 347 868 l 694 868 l 694 1042 l 174 1042 l 174 174 l 694 174 m 694 1215 l 694 1389 l 347 1389 l 347 1215 l 694 1215 m 0 0 l 0 1215 l 174 1215 l 174 1563 l 868 1563 l 868 0 l 0 0 z "},"Ê":{"ha":1042,"x_min":0,"x_max":868,"o":"m 694 174 l 694 347 l 347 347 l 347 521 l 694 521 l 694 694 l 347 694 l 347 868 l 694 868 l 694 1042 l 174 1042 l 174 174 l 694 174 m 694 1215 l 694 1389 l 521 1389 l 521 1563 l 347 1563 l 347 1389 l 174 1389 l 174 1215 l 347 1215 l 347 1389 l 521 1389 l 521 1215 l 694 1215 m 0 0 l 0 1563 l 174 1563 l 174 1736 l 694 1736 l 694 1563 l 868 1563 l 868 0 l 0 0 z "},"Ë":{"ha":1042,"x_min":0,"x_max":868,"o":"m 694 174 l 694 347 l 347 347 l 347 521 l 694 521 l 694 694 l 347 694 l 347 868 l 694 868 l 694 1042 l 174 1042 l 174 174 l 694 174 m 347 1215 l 347 1389 l 174 1389 l 174 1215 l 347 1215 m 694 1215 l 694 1389 l 521 1389 l 521 1215 l 694 1215 m 0 0 l 0 1563 l 868 1563 l 868 0 l 0 0 z "},"Ì":{"ha":1042,"x_min":0,"x_max":868,"o":"m 694 174 l 694 347 l 521 347 l 521 868 l 694 868 l 694 1042 l 174 1042 l 174 868 l 347 868 l 347 347 l 174 347 l 174 174 l 694 174 m 521 1215 l 521 1389 l 174 1389 l 174 1215 l 521 1215 m 0 0 l 0 521 l 174 521 l 174 694 l 0 694 l 0 1563 l 694 1563 l 694 1215 l 868 1215 l 868 694 l 694 694 l 694 521 l 868 521 l 868 0 l 0 0 z "},"Í":{"ha":1042,"x_min":0,"x_max":868,"o":"m 694 174 l 694 347 l 521 347 l 521 868 l 694 868 l 694 1042 l 174 1042 l 174 868 l 347 868 l 347 347 l 174 347 l 174 174 l 694 174 m 694 1215 l 694 1389 l 347 1389 l 347 1215 l 694 1215 m 0 0 l 0 521 l 174 521 l 174 694 l 0 694 l 0 1215 l 174 1215 l 174 1563 l 868 1563 l 868 694 l 694 694 l 694 521 l 868 521 l 868 0 l 0 0 z "},"Î":{"ha":1042,"x_min":0,"x_max":868,"o":"m 694 174 l 694 347 l 521 347 l 521 868 l 694 868 l 694 1042 l 174 1042 l 174 868 l 347 868 l 347 347 l 174 347 l 174 174 l 694 174 m 694 1215 l 694 1389 l 521 1389 l 521 1563 l 347 1563 l 347 1389 l 174 1389 l 174 1215 l 347 1215 l 347 1389 l 521 1389 l 521 1215 l 694 1215 m 0 0 l 0 521 l 174 521 l 174 694 l 0 694 l 0 1563 l 174 1563 l 174 1736 l 694 1736 l 694 1563 l 868 1563 l 868 694 l 694 694 l 694 521 l 868 521 l 868 0 l 0 0 z "},"Ï":{"ha":1042,"x_min":0,"x_max":868,"o":"m 694 174 l 694 347 l 521 347 l 521 868 l 694 868 l 694 1042 l 174 1042 l 174 868 l 347 868 l 347 347 l 174 347 l 174 174 l 694 174 m 347 1215 l 347 1389 l 174 1389 l 174 1215 l 347 1215 m 694 1215 l 694 1389 l 521 1389 l 521 1215 l 694 1215 m 0 0 l 0 521 l 174 521 l 174 694 l 0 694 l 0 1563 l 868 1563 l 868 694 l 694 694 l 694 521 l 868 521 l 868 0 l 0 0 z "},"Ð":{"ha":1215,"x_min":0,"x_max":1042,"o":"m 521 347 l 521 868 l 694 868 l 694 347 l 521 347 m 694 174 l 694 347 l 868 347 l 868 868 l 694 868 l 694 1042 l 347 1042 l 347 694 l 174 694 l 174 521 l 347 521 l 347 174 l 694 174 m 174 0 l 174 347 l 0 347 l 0 868 l 174 868 l 174 1215 l 868 1215 l 868 1042 l 1042 1042 l 1042 174 l 868 174 l 868 0 l 174 0 z "},"Ñ":{"ha":1042,"x_min":0,"x_max":868,"o":"m 694 174 l 694 868 l 521 868 l 521 1042 l 174 1042 l 174 174 l 347 174 l 347 868 l 521 868 l 521 174 l 694 174 m 694 1215 l 694 1389 l 174 1389 l 174 1215 l 694 1215 m 0 0 l 0 1563 l 868 1563 l 868 0 l 0 0 z "},"Ò":{"ha":1042,"x_min":0,"x_max":868,"o":"m 347 347 l 347 868 l 521 868 l 521 347 l 347 347 m 694 174 l 694 1042 l 174 1042 l 174 174 l 694 174 m 521 1215 l 521 1389 l 174 1389 l 174 1215 l 521 1215 m 0 0 l 0 1563 l 694 1563 l 694 1215 l 868 1215 l 868 0 l 0 0 z "},"Ó":{"ha":1042,"x_min":0,"x_max":868,"o":"m 347 347 l 347 868 l 521 868 l 521 347 l 347 347 m 694 174 l 694 1042 l 174 1042 l 174 174 l 694 174 m 694 1215 l 694 1389 l 347 1389 l 347 1215 l 694 1215 m 0 0 l 0 1215 l 174 1215 l 174 1563 l 868 1563 l 868 0 l 0 0 z "},"Ô":{"ha":1042,"x_min":0,"x_max":868,"o":"m 347 347 l 347 868 l 521 868 l 521 347 l 347 347 m 694 174 l 694 1042 l 174 1042 l 174 174 l 694 174 m 694 1215 l 694 1389 l 521 1389 l 521 1563 l 347 1563 l 347 1389 l 174 1389 l 174 1215 l 347 1215 l 347 1389 l 521 1389 l 521 1215 l 694 1215 m 0 0 l 0 1563 l 174 1563 l 174 1736 l 694 1736 l 694 1563 l 868 1563 l 868 0 l 0 0 z "},"Õ":{"ha":1042,"x_min":0,"x_max":868,"o":"m 347 347 l 347 868 l 521 868 l 521 347 l 347 347 m 694 174 l 694 1042 l 174 1042 l 174 174 l 694 174 m 694 1215 l 694 1389 l 174 1389 l 174 1215 l 694 1215 m 0 0 l 0 1563 l 868 1563 l 868 0 l 0 0 z "},"Ö":{"ha":1042,"x_min":0,"x_max":868,"o":"m 347 347 l 347 868 l 521 868 l 521 347 l 347 347 m 694 174 l 694 1042 l 174 1042 l 174 174 l 694 174 m 347 1215 l 347 1389 l 174 1389 l 174 1215 l 347 1215 m 694 1215 l 694 1389 l 521 1389 l 521 1215 l 694 1215 m 0 0 l 0 1563 l 868 1563 l 868 0 l 0 0 z "},"×":{"ha":1042,"x_min":0,"x_max":868,"o":"m 694 347 l 694 521 l 521 521 l 521 694 l 694 694 l 694 868 l 521 868 l 521 694 l 347 694 l 347 868 l 174 868 l 174 694 l 347 694 l 347 521 l 174 521 l 174 347 l 347 347 l 347 521 l 521 521 l 521 347 l 694 347 m 0 174 l 0 1042 l 868 1042 l 868 174 l 0 174 z "},"Ø":{"ha":1042,"x_min":0,"x_max":868,"o":"m 347 347 l 347 868 l 521 868 l 521 347 l 347 347 m 694 174 l 694 868 l 521 868 l 521 1042 l 174 1042 l 174 347 l 347 347 l 347 174 l 694 174 m 174 0 l 174 174 l 0 174 l 0 1215 l 694 1215 l 694 1042 l 868 1042 l 868 0 l 174 0 z "},"Ù":{"ha":1042,"x_min":0,"x_max":868,"o":"m 694 174 l 694 1042 l 521 1042 l 521 347 l 347 347 l 347 1042 l 174 1042 l 174 174 l 694 174 m 521 1215 l 521 1389 l 174 1389 l 174 1215 l 521 1215 m 0 0 l 0 1563 l 694 1563 l 694 1215 l 868 1215 l 868 0 l 0 0 z "},"Ú":{"ha":1042,"x_min":0,"x_max":868,"o":"m 694 174 l 694 1042 l 521 1042 l 521 347 l 347 347 l 347 1042 l 174 1042 l 174 174 l 694 174 m 694 1215 l 694 1389 l 347 1389 l 347 1215 l 694 1215 m 0 0 l 0 1215 l 174 1215 l 174 1563 l 868 1563 l 868 0 l 0 0 z "},"Û":{"ha":1042,"x_min":0,"x_max":868,"o":"m 694 174 l 694 1042 l 521 1042 l 521 347 l 347 347 l 347 1042 l 174 1042 l 174 174 l 694 174 m 694 1215 l 694 1389 l 521 1389 l 521 1563 l 347 1563 l 347 1389 l 174 1389 l 174 1215 l 347 1215 l 347 1389 l 521 1389 l 521 1215 l 694 1215 m 0 0 l 0 1563 l 174 1563 l 174 1736 l 694 1736 l 694 1563 l 868 1563 l 868 0 l 0 0 z "},"Ü":{"ha":1042,"x_min":0,"x_max":868,"o":"m 694 174 l 694 1042 l 521 1042 l 521 347 l 347 347 l 347 1042 l 174 1042 l 174 174 l 694 174 m 347 1215 l 347 1389 l 174 1389 l 174 1215 l 347 1215 m 694 1215 l 694 1389 l 521 1389 l 521 1215 l 694 1215 m 0 0 l 0 1563 l 868 1563 l 868 0 l 0 0 z "},"Ý":{"ha":1042,"x_min":0,"x_max":868,"o":"m 521 174 l 521 521 l 694 521 l 694 1042 l 521 1042 l 521 694 l 347 694 l 347 1042 l 174 1042 l 174 521 l 347 521 l 347 174 l 521 174 m 694 1215 l 694 1389 l 347 1389 l 347 1215 l 694 1215 m 174 0 l 174 347 l 0 347 l 0 1215 l 174 1215 l 174 1563 l 868 1563 l 868 347 l 694 347 l 694 0 l 174 0 z "},"Þ":{"ha":1042,"x_min":0,"x_max":868,"o":"m 347 521 l 347 694 l 521 694 l 521 521 l 347 521 m 347 174 l 347 347 l 694 347 l 694 868 l 347 868 l 347 1042 l 174 1042 l 174 174 l 347 174 m 0 0 l 0 1215 l 521 1215 l 521 1042 l 868 1042 l 868 174 l 521 174 l 521 0 l 0 0 z "},"ß":{"ha":1215,"x_min":0,"x_max":1042,"o":"m 694 174 l 694 347 l 868 347 l 868 521 l 694 521 l 694 694 l 868 694 l 868 868 l 694 868 l 694 1042 l 174 1042 l 174 174 l 347 174 l 347 868 l 694 868 l 694 694 l 521 694 l 521 521 l 694 521 l 694 347 l 521 347 l 521 174 l 694 174 m 0 0 l 0 1215 l 868 1215 l 868 1042 l 1042 1042 l 1042 174 l 868 174 l 868 0 l 0 0 z "},"à":{"ha":1042,"x_min":0,"x_max":868,"o":"m 347 694 l 347 868 l 521 868 l 521 694 l 347 694 m 694 174 l 694 1042 l 174 1042 l 174 174 l 347 174 l 347 521 l 521 521 l 521 174 l 694 174 m 521 1215 l 521 1389 l 174 1389 l 174 1215 l 521 1215 m 0 0 l 0 1563 l 694 1563 l 694 1215 l 868 1215 l 868 0 l 0 0 z "},"á":{"ha":1042,"x_min":0,"x_max":868,"o":"m 347 694 l 347 868 l 521 868 l 521 694 l 347 694 m 694 174 l 694 1042 l 174 1042 l 174 174 l 347 174 l 347 521 l 521 521 l 521 174 l 694 174 m 694 1215 l 694 1389 l 347 1389 l 347 1215 l 694 1215 m 0 0 l 0 1215 l 174 1215 l 174 1563 l 868 1563 l 868 0 l 0 0 z "},"â":{"ha":1042,"x_min":0,"x_max":868,"o":"m 347 694 l 347 868 l 521 868 l 521 694 l 347 694 m 694 174 l 694 1042 l 174 1042 l 174 174 l 347 174 l 347 521 l 521 521 l 521 174 l 694 174 m 694 1215 l 694 1389 l 521 1389 l 521 1563 l 347 1563 l 347 1389 l 174 1389 l 174 1215 l 347 1215 l 347 1389 l 521 1389 l 521 1215 l 694 1215 m 0 0 l 0 1563 l 174 1563 l 174 1736 l 694 1736 l 694 1563 l 868 1563 l 868 0 l 0 0 z "},"ã":{"ha":1042,"x_min":0,"x_max":868,"o":"m 347 694 l 347 868 l 521 868 l 521 694 l 347 694 m 694 174 l 694 1042 l 174 1042 l 174 174 l 347 174 l 347 521 l 521 521 l 521 174 l 694 174 m 694 1215 l 694 1389 l 174 1389 l 174 1215 l 694 1215 m 0 0 l 0 1563 l 868 1563 l 868 0 l 0 0 z "},"ä":{"ha":1042,"x_min":0,"x_max":868,"o":"m 347 694 l 347 868 l 521 868 l 521 694 l 347 694 m 694 174 l 694 1042 l 174 1042 l 174 174 l 347 174 l 347 521 l 521 521 l 521 174 l 694 174 m 347 1215 l 347 1389 l 174 1389 l 174 1215 l 347 1215 m 694 1215 l 694 1389 l 521 1389 l 521 1215 l 694 1215 m 0 0 l 0 1563 l 868 1563 l 868 0 l 0 0 z "},"å":{"ha":1042,"x_min":0,"x_max":868,"o":"m 347 694 l 347 868 l 521 868 l 521 694 l 347 694 m 694 174 l 694 1042 l 174 1042 l 174 174 l 347 174 l 347 521 l 521 521 l 521 174 l 694 174 m 521 1215 l 521 1389 l 347 1389 l 347 1215 l 521 1215 m 0 0 l 0 1215 l 174 1215 l 174 1563 l 694 1563 l 694 1215 l 868 1215 l 868 0 l 0 0 z "},"æ":{"ha":1389,"x_min":0,"x_max":1215,"o":"m 347 694 l 347 868 l 521 868 l 521 694 l 347 694 m 1042 174 l 1042 347 l 694 347 l 694 521 l 1042 521 l 1042 694 l 694 694 l 694 868 l 1042 868 l 1042 1042 l 174 1042 l 174 174 l 347 174 l 347 521 l 521 521 l 521 174 l 1042 174 m 0 0 l 0 1215 l 1215 1215 l 1215 0 l 0 0 z "},"ç":{"ha":1042,"x_min":0,"x_max":868,"o":"m 521 0 l 521 174 l 694 174 l 694 347 l 347 347 l 347 868 l 694 868 l 694 1042 l 174 1042 l 174 174 l 347 174 l 347 0 l 521 0 m 174 -174 l 174 0 l 0 0 l 0 1215 l 868 1215 l 868 694 l 521 694 l 521 521 l 868 521 l 868 0 l 694 0 l 694 -174 l 174 -174 z "},"è":{"ha":1042,"x_min":0,"x_max":868,"o":"m 694 174 l 694 347 l 347 347 l 347 521 l 694 521 l 694 694 l 347 694 l 347 868 l 694 868 l 694 1042 l 174 1042 l 174 174 l 694 174 m 521 1215 l 521 1389 l 174 1389 l 174 1215 l 521 1215 m 0 0 l 0 1563 l 694 1563 l 694 1215 l 868 1215 l 868 0 l 0 0 z "},"é":{"ha":1042,"x_min":0,"x_max":868,"o":"m 694 174 l 694 347 l 347 347 l 347 521 l 694 521 l 694 694 l 347 694 l 347 868 l 694 868 l 694 1042 l 174 1042 l 174 174 l 694 174 m 694 1215 l 694 1389 l 347 1389 l 347 1215 l 694 1215 m 0 0 l 0 1215 l 174 1215 l 174 1563 l 868 1563 l 868 0 l 0 0 z "},"ê":{"ha":1042,"x_min":0,"x_max":868,"o":"m 694 174 l 694 347 l 347 347 l 347 521 l 694 521 l 694 694 l 347 694 l 347 868 l 694 868 l 694 1042 l 174 1042 l 174 174 l 694 174 m 694 1215 l 694 1389 l 521 1389 l 521 1563 l 347 1563 l 347 1389 l 174 1389 l 174 1215 l 347 1215 l 347 1389 l 521 1389 l 521 1215 l 694 1215 m 0 0 l 0 1563 l 174 1563 l 174 1736 l 694 1736 l 694 1563 l 868 1563 l 868 0 l 0 0 z "},"ë":{"ha":1042,"x_min":0,"x_max":868,"o":"m 694 174 l 694 347 l 347 347 l 347 521 l 694 521 l 694 694 l 347 694 l 347 868 l 694 868 l 694 1042 l 174 1042 l 174 174 l 694 174 m 347 1215 l 347 1389 l 174 1389 l 174 1215 l 347 1215 m 694 1215 l 694 1389 l 521 1389 l 521 1215 l 694 1215 m 0 0 l 0 1563 l 868 1563 l 868 0 l 0 0 z "},"ì":{"ha":1042,"x_min":0,"x_max":868,"o":"m 694 174 l 694 347 l 521 347 l 521 868 l 694 868 l 694 1042 l 174 1042 l 174 868 l 347 868 l 347 347 l 174 347 l 174 174 l 694 174 m 521 1215 l 521 1389 l 174 1389 l 174 1215 l 521 1215 m 0 0 l 0 521 l 174 521 l 174 694 l 0 694 l 0 1563 l 694 1563 l 694 1215 l 868 1215 l 868 694 l 694 694 l 694 521 l 868 521 l 868 0 l 0 0 z "},"í":{"ha":1042,"x_min":0,"x_max":868,"o":"m 694 174 l 694 347 l 521 347 l 521 868 l 694 868 l 694 1042 l 174 1042 l 174 868 l 347 868 l 347 347 l 174 347 l 174 174 l 694 174 m 694 1215 l 694 1389 l 347 1389 l 347 1215 l 694 1215 m 0 0 l 0 521 l 174 521 l 174 694 l 0 694 l 0 1215 l 174 1215 l 174 1563 l 868 1563 l 868 694 l 694 694 l 694 521 l 868 521 l 868 0 l 0 0 z "},"î":{"ha":1042,"x_min":0,"x_max":868,"o":"m 694 174 l 694 347 l 521 347 l 521 868 l 694 868 l 694 1042 l 174 1042 l 174 868 l 347 868 l 347 347 l 174 347 l 174 174 l 694 174 m 694 1215 l 694 1389 l 521 1389 l 521 1563 l 347 1563 l 347 1389 l 174 1389 l 174 1215 l 347 1215 l 347 1389 l 521 1389 l 521 1215 l 694 1215 m 0 0 l 0 521 l 174 521 l 174 694 l 0 694 l 0 1563 l 174 1563 l 174 1736 l 694 1736 l 694 1563 l 868 1563 l 868 694 l 694 694 l 694 521 l 868 521 l 868 0 l 0 0 z "},"ï":{"ha":1042,"x_min":0,"x_max":868,"o":"m 694 174 l 694 347 l 521 347 l 521 868 l 694 868 l 694 1042 l 174 1042 l 174 868 l 347 868 l 347 347 l 174 347 l 174 174 l 694 174 m 347 1215 l 347 1389 l 174 1389 l 174 1215 l 347 1215 m 694 1215 l 694 1389 l 521 1389 l 521 1215 l 694 1215 m 0 0 l 0 521 l 174 521 l 174 694 l 0 694 l 0 1563 l 868 1563 l 868 694 l 694 694 l 694 521 l 868 521 l 868 0 l 0 0 z "},"ð":{"ha":1042,"x_min":0,"x_max":868,"o":"m 347 347 l 347 521 l 521 521 l 521 347 l 347 347 m 694 174 l 694 868 l 521 868 l 521 1042 l 694 1042 l 694 1215 l 521 1215 l 521 1389 l 347 1389 l 347 1215 l 174 1215 l 174 1042 l 347 1042 l 347 868 l 521 868 l 521 694 l 174 694 l 174 174 l 694 174 m 0 0 l 0 1563 l 868 1563 l 868 0 l 0 0 z "},"ñ":{"ha":1042,"x_min":0,"x_max":868,"o":"m 694 174 l 694 868 l 521 868 l 521 1042 l 174 1042 l 174 174 l 347 174 l 347 868 l 521 868 l 521 174 l 694 174 m 694 1215 l 694 1389 l 174 1389 l 174 1215 l 694 1215 m 0 0 l 0 1563 l 868 1563 l 868 0 l 0 0 z "},"ò":{"ha":1042,"x_min":0,"x_max":868,"o":"m 347 347 l 347 868 l 521 868 l 521 347 l 347 347 m 694 174 l 694 1042 l 174 1042 l 174 174 l 694 174 m 521 1215 l 521 1389 l 174 1389 l 174 1215 l 521 1215 m 0 0 l 0 1563 l 694 1563 l 694 1215 l 868 1215 l 868 0 l 0 0 z "},"ó":{"ha":1042,"x_min":0,"x_max":868,"o":"m 347 347 l 347 868 l 521 868 l 521 347 l 347 347 m 694 174 l 694 1042 l 174 1042 l 174 174 l 694 174 m 694 1215 l 694 1389 l 347 1389 l 347 1215 l 694 1215 m 0 0 l 0 1215 l 174 1215 l 174 1563 l 868 1563 l 868 0 l 0 0 z "},"ô":{"ha":1042,"x_min":0,"x_max":868,"o":"m 347 347 l 347 868 l 521 868 l 521 347 l 347 347 m 694 174 l 694 1042 l 174 1042 l 174 174 l 694 174 m 694 1215 l 694 1389 l 521 1389 l 521 1563 l 347 1563 l 347 1389 l 174 1389 l 174 1215 l 347 1215 l 347 1389 l 521 1389 l 521 1215 l 694 1215 m 0 0 l 0 1563 l 174 1563 l 174 1736 l 694 1736 l 694 1563 l 868 1563 l 868 0 l 0 0 z "},"õ":{"ha":1042,"x_min":0,"x_max":868,"o":"m 347 347 l 347 868 l 521 868 l 521 347 l 347 347 m 694 174 l 694 1042 l 174 1042 l 174 174 l 694 174 m 694 1215 l 694 1389 l 174 1389 l 174 1215 l 694 1215 m 0 0 l 0 1563 l 868 1563 l 868 0 l 0 0 z "},"ö":{"ha":1042,"x_min":0,"x_max":868,"o":"m 347 347 l 347 868 l 521 868 l 521 347 l 347 347 m 694 174 l 694 1042 l 174 1042 l 174 174 l 694 174 m 347 1215 l 347 1389 l 174 1389 l 174 1215 l 347 1215 m 694 1215 l 694 1389 l 521 1389 l 521 1215 l 694 1215 m 0 0 l 0 1563 l 868 1563 l 868 0 l 0 0 z "},"÷":{"ha":1042,"x_min":0,"x_max":868,"o":"m 521 174 l 521 347 l 347 347 l 347 174 l 521 174 m 694 521 l 694 694 l 174 694 l 174 521 l 694 521 m 521 868 l 521 1042 l 347 1042 l 347 868 l 521 868 m 174 0 l 174 347 l 0 347 l 0 868 l 174 868 l 174 1215 l 694 1215 l 694 868 l 868 868 l 868 347 l 694 347 l 694 0 l 174 0 z "},"ø":{"ha":1042,"x_min":0,"x_max":868,"o":"m 347 347 l 347 868 l 521 868 l 521 347 l 347 347 m 694 174 l 694 868 l 521 868 l 521 1042 l 174 1042 l 174 347 l 347 347 l 347 174 l 694 174 m 174 0 l 174 174 l 0 174 l 0 1215 l 694 1215 l 694 1042 l 868 1042 l 868 0 l 174 0 z "},"ù":{"ha":1042,"x_min":0,"x_max":868,"o":"m 694 174 l 694 1042 l 521 1042 l 521 347 l 347 347 l 347 1042 l 174 1042 l 174 174 l 694 174 m 521 1215 l 521 1389 l 174 1389 l 174 1215 l 521 1215 m 0 0 l 0 1563 l 694 1563 l 694 1215 l 868 1215 l 868 0 l 0 0 z "},"ú":{"ha":1042,"x_min":0,"x_max":868,"o":"m 694 174 l 694 1042 l 521 1042 l 521 347 l 347 347 l 347 1042 l 174 1042 l 174 174 l 694 174 m 694 1215 l 694 1389 l 347 1389 l 347 1215 l 694 1215 m 0 0 l 0 1215 l 174 1215 l 174 1563 l 868 1563 l 868 0 l 0 0 z "},"û":{"ha":1042,"x_min":0,"x_max":868,"o":"m 694 174 l 694 1042 l 521 1042 l 521 347 l 347 347 l 347 1042 l 174 1042 l 174 174 l 694 174 m 694 1215 l 694 1389 l 521 1389 l 521 1563 l 347 1563 l 347 1389 l 174 1389 l 174 1215 l 347 1215 l 347 1389 l 521 1389 l 521 1215 l 694 1215 m 0 0 l 0 1563 l 174 1563 l 174 1736 l 694 1736 l 694 1563 l 868 1563 l 868 0 l 0 0 z "},"ü":{"ha":1042,"x_min":0,"x_max":868,"o":"m 694 174 l 694 1042 l 521 1042 l 521 347 l 347 347 l 347 1042 l 174 1042 l 174 174 l 694 174 m 347 1215 l 347 1389 l 174 1389 l 174 1215 l 347 1215 m 694 1215 l 694 1389 l 521 1389 l 521 1215 l 694 1215 m 0 0 l 0 1563 l 868 1563 l 868 0 l 0 0 z "},"ý":{"ha":1042,"x_min":0,"x_max":868,"o":"m 521 174 l 521 521 l 694 521 l 694 1042 l 521 1042 l 521 694 l 347 694 l 347 1042 l 174 1042 l 174 521 l 347 521 l 347 174 l 521 174 m 694 1215 l 694 1389 l 347 1389 l 347 1215 l 694 1215 m 174 0 l 174 347 l 0 347 l 0 1215 l 174 1215 l 174 1563 l 868 1563 l 868 347 l 694 347 l 694 0 l 174 0 z "},"þ":{"ha":1042,"x_min":0,"x_max":868,"o":"m 347 521 l 347 694 l 521 694 l 521 521 l 347 521 m 347 174 l 347 347 l 694 347 l 694 868 l 347 868 l 347 1042 l 174 1042 l 174 174 l 347 174 m 0 0 l 0 1215 l 521 1215 l 521 1042 l 868 1042 l 868 174 l 521 174 l 521 0 l 0 0 z "},"ÿ":{"ha":1042,"x_min":0,"x_max":868,"o":"m 521 174 l 521 521 l 694 521 l 694 1042 l 521 1042 l 521 694 l 347 694 l 347 1042 l 174 1042 l 174 521 l 347 521 l 347 174 l 521 174 m 347 1215 l 347 1389 l 174 1389 l 174 1215 l 347 1215 m 694 1215 l 694 1389 l 521 1389 l 521 1215 l 694 1215 m 174 0 l 174 347 l 0 347 l 0 1563 l 868 1563 l 868 347 l 694 347 l 694 0 l 174 0 z "},"Ÿ":{"ha":1042,"x_min":0,"x_max":868,"o":"m 521 174 l 521 521 l 694 521 l 694 1042 l 521 1042 l 521 694 l 347 694 l 347 1042 l 174 1042 l 174 521 l 347 521 l 347 174 l 521 174 m 347 1215 l 347 1389 l 174 1389 l 174 1215 l 347 1215 m 694 1215 l 694 1389 l 521 1389 l 521 1215 l 694 1215 m 174 0 l 174 347 l 0 347 l 0 1563 l 868 1563 l 868 347 l 694 347 l 694 0 l 174 0 z "},"ẞ":{"ha":1215,"x_min":0,"x_max":1042,"o":"m 694 174 l 694 347 l 868 347 l 868 521 l 694 521 l 694 694 l 868 694 l 868 868 l 694 868 l 694 1042 l 174 1042 l 174 174 l 347 174 l 347 868 l 694 868 l 694 694 l 521 694 l 521 521 l 694 521 l 694 347 l 521 347 l 521 174 l 694 174 m 0 0 l 0 1215 l 868 1215 l 868 1042 l 1042 1042 l 1042 174 l 868 174 l 868 0 l 0 0 z "},"—":{"ha":1389,"x_min":0,"x_max":1215,"o":"m 1042 521 l 1042 694 l 174 694 l 174 521 l 1042 521 m 0 347 l 0 868 l 1215 868 l 1215 347 l 0 347 z "},"‘":{"ha":694,"x_min":0,"x_max":521,"o":"m 347 694 l 347 1042 l 174 1042 l 174 694 l 347 694 m 0 521 l 0 1215 l 521 1215 l 521 521 l 0 521 z "},"’":{"ha":694,"x_min":0,"x_max":521,"o":"m 347 694 l 347 1042 l 174 1042 l 174 694 l 347 694 m 0 521 l 0 1215 l 521 1215 l 521 521 l 0 521 z "},"‚":{"ha":694,"x_min":0,"x_max":521,"o":"m 347 0 l 347 347 l 174 347 l 174 0 l 347 0 m 0 -174 l 0 521 l 521 521 l 521 -174 l 0 -174 z "},"‛":{"ha":694,"x_min":0,"x_max":521,"o":"m 347 694 l 347 1042 l 174 1042 l 174 694 l 347 694 m 0 521 l 0 1215 l 521 1215 l 521 521 l 0 521 z "},"“":{"ha":1042,"x_min":0,"x_max":868,"o":"m 347 694 l 347 1042 l 174 1042 l 174 694 l 347 694 m 694 694 l 694 1042 l 521 1042 l 521 694 l 694 694 m 0 521 l 0 1215 l 868 1215 l 868 521 l 0 521 z "},"”":{"ha":1042,"x_min":0,"x_max":868,"o":"m 347 694 l 347 1042 l 174 1042 l 174 694 l 347 694 m 694 694 l 694 1042 l 521 1042 l 521 694 l 694 694 m 0 521 l 0 1215 l 868 1215 l 868 521 l 0 521 z "},"„":{"ha":1042,"x_min":0,"x_max":868,"o":"m 347 0 l 347 347 l 174 347 l 174 0 l 347 0 m 694 0 l 694 347 l 521 347 l 521 0 l 694 0 m 0 -174 l 0 521 l 868 521 l 868 -174 l 0 -174 z "},"†":{"ha":1042,"x_min":0,"x_max":868,"o":"m 521 174 l 521 694 l 694 694 l 694 868 l 521 868 l 521 1042 l 347 1042 l 347 868 l 174 868 l 174 694 l 347 694 l 347 174 l 521 174 m 174 0 l 174 521 l 0 521 l 0 1042 l 174 1042 l 174 1215 l 694 1215 l 694 1042 l 868 1042 l 868 521 l 694 521 l 694 0 l 174 0 z "},"•":{"ha":1042,"x_min":0,"x_max":868,"o":"m 521 347 l 521 521 l 694 521 l 694 694 l 521 694 l 521 868 l 347 868 l 347 694 l 174 694 l 174 521 l 347 521 l 347 347 l 521 347 m 174 174 l 174 347 l 0 347 l 0 868 l 174 868 l 174 1042 l 694 1042 l 694 868 l 868 868 l 868 347 l 694 347 l 694 174 l 174 174 z "},"…":{"ha":1389,"x_min":0,"x_max":1215,"o":"m 347 174 l 347 347 l 174 347 l 174 174 l 347 174 m 694 174 l 694 347 l 521 347 l 521 174 l 694 174 m 1042 174 l 1042 347 l 868 347 l 868 174 l 1042 174 m 0 0 l 0 521 l 1215 521 l 1215 0 l 0 0 z "},"‹":{"ha":1042,"x_min":0,"x_max":868,"o":"m 694 174 l 694 347 l 521 347 l 521 521 l 347 521 l 347 694 l 521 694 l 521 868 l 694 868 l 694 1042 l 521 1042 l 521 868 l 347 868 l 347 694 l 174 694 l 174 521 l 347 521 l 347 347 l 521 347 l 521 174 l 694 174 m 347 0 l 347 174 l 174 174 l 174 347 l 0 347 l 0 868 l 174 868 l 174 1042 l 347 1042 l 347 1215 l 868 1215 l 868 694 l 694 694 l 694 521 l 868 521 l 868 0 l 347 0 z "},"›":{"ha":1042,"x_min":0,"x_max":868,"o":"m 347 174 l 347 347 l 521 347 l 521 521 l 694 521 l 694 694 l 521 694 l 521 868 l 347 868 l 347 1042 l 174 1042 l 174 868 l 347 868 l 347 694 l 521 694 l 521 521 l 347 521 l 347 347 l 174 347 l 174 174 l 347 174 m 0 0 l 0 521 l 174 521 l 174 694 l 0 694 l 0 1215 l 521 1215 l 521 1042 l 694 1042 l 694 868 l 868 868 l 868 347 l 694 347 l 694 174 l 521 174 l 521 0 l 0 0 z "},"€":{"ha":1215,"x_min":0,"x_max":1042,"o":"m 868 174 l 868 347 l 521 347 l 521 521 l 868 521 l 868 694 l 521 694 l 521 868 l 868 868 l 868 1042 l 521 1042 l 521 868 l 347 868 l 347 694 l 174 694 l 174 521 l 347 521 l 347 347 l 521 347 l 521 174 l 868 174 m 347 0 l 347 174 l 174 174 l 174 347 l 0 347 l 0 868 l 174 868 l 174 1042 l 347 1042 l 347 1215 l 1042 1215 l 1042 0 l 347 0 z "},"™":{"ha":1563,"x_min":0,"x_max":1389,"o":"m 868 868 l 868 1042 l 1042 1042 l 1042 868 l 868 868 m 174 868 l 174 1042 l 0 1042 l 0 1215 l 868 1215 l 868 1042 l 694 1042 l 694 868 l 521 868 l 521 1042 l 347 1042 l 347 868 l 174 868 m 1215 868 l 1215 1042 l 1042 1042 l 1042 1215 l 1389 1215 l 1389 868 l 1215 868 z "},"ﬁ":{"ha":1042,"x_min":0,"x_max":868,"o":"m 694 174 l 694 694 l 347 694 l 347 868 l 174 868 l 174 174 l 347 174 l 347 521 l 521 521 l 521 174 l 694 174 m 694 868 l 694 1042 l 521 1042 l 521 868 l 694 868 m 0 0 l 0 1042 l 174 1042 l 174 1215 l 868 1215 l 868 0 l 0 0 z "},"ﬂ":{"ha":1042,"x_min":0,"x_max":868,"o":"m 694 174 l 694 694 l 347 694 l 347 868 l 694 868 l 694 1042 l 347 1042 l 347 868 l 174 868 l 174 174 l 347 174 l 347 521 l 521 521 l 521 174 l 694 174 m 0 0 l 0 1042 l 174 1042 l 174 1215 l 868 1215 l 868 0 l 0 0 z "}}}
